<?xml version="1.0" standalone="no"?>
<!DOCTYPE svg PUBLIC "-//W3C//DTD SVG 20010904//EN"
 "http://www.w3.org/TR/2001/REC-SVG-20010904/DTD/svg10.dtd">
<svg version="1.0" xmlns="http://www.w3.org/2000/svg"
 width="500.000000pt" height="500.000000pt" viewBox="0 0 500.000000 500.000000"
 preserveAspectRatio="xMidYMid meet">
<metadata>
Created by potrace 1.11, written by Peter Selinger 2001-2013
</metadata>
<g transform="translate(0.000000,500.000000) scale(0.100000,-0.100000)"
fill="#000000" stroke="none">
<path d="M2391 4778 c-78 -12 -122 -33 -114 -55 3 -10 3 -15 -2 -11 -21 19
-256 -90 -344 -160 -58 -46 -171 -160 -171 -172 0 -6 -4 -10 -8 -10 -14 0
-102 -154 -132 -231 -31 -81 -64 -225 -56 -246 3 -7 1 -13 -4 -13 -23 0 -48
-88 -34 -120 13 -29 15 -46 19 -185 10 -374 9 -503 -4 -519 -17 -20 -11 -74
10 -106 14 -20 17 -48 17 -133 1 -59 -2 -107 -6 -108 -79 -7 -113 -12 -152
-22 -32 -8 -120 -50 -120 -58 0 -4 -8 -10 -18 -13 -30 -10 -108 -92 -154 -163
-43 -66 -103 -193 -91 -193 3 0 1 -6 -6 -13 -14 -18 -64 -225 -57 -242 2 -7 2
-16 -2 -19 -7 -8 -9 -21 -18 -96 -9 -78 -12 -124 -13 -218 -1 -60 -4 -82 -14
-81 -46 6 -47 3 -47 -95 l0 -93 63 -1 c34 0 68 -1 75 -1 19 -1 14 -36 -9 -57
-63 -57 -99 -144 -99 -241 0 -162 85 -261 205 -239 40 8 92 56 112 103 11 28
17 32 32 24 13 -7 24 -6 41 6 20 14 22 22 17 68 -8 79 -61 180 -129 247 -32
32 -58 64 -58 73 0 16 7 18 90 17 l56 -1 1 95 2 94 -31 0 -31 0 7 128 c7 138
10 171 19 217 4 17 9 46 12 65 25 154 90 300 164 368 26 24 79 51 113 57 46 9
46 13 47 -343 1 -343 3 -377 13 -388 4 -3 4 -12 1 -20 -3 -8 0 -20 6 -28 6 -7
8 -15 5 -19 -6 -6 15 -76 28 -92 4 -5 8 -17 8 -26 0 -10 6 -24 13 -31 6 -7 13
-20 15 -28 7 -29 92 -138 149 -190 102 -94 240 -168 380 -204 34 -9 66 -25 80
-40 63 -69 219 -109 332 -85 67 14 164 61 184 89 8 12 46 29 100 45 149 43
291 127 391 230 59 61 153 214 147 240 -1 3 5 18 12 33 15 28 24 66 34 142 4
25 7 192 7 373 l1 327 22 0 c24 0 88 -35 117 -64 50 -50 121 -206 140 -306 3
-14 10 -50 15 -80 17 -87 20 -117 26 -252 l6 -128 -31 0 -30 0 0 -95 0 -95 75
0 c94 0 96 -9 18 -88 -32 -31 -67 -75 -78 -97 -11 -22 -24 -43 -30 -47 -5 -4
-7 -8 -2 -8 4 0 0 -16 -8 -36 -33 -78 -11 -153 39 -134 26 10 36 5 36 -18 0
-23 47 -80 80 -97 61 -31 151 -10 190 46 83 116 59 326 -49 423 -12 11 -21 27
-21 38 0 16 9 18 75 18 l75 0 1 58 c1 69 -2 126 -7 131 -2 2 -14 3 -27 3 -13
1 -24 6 -25 12 0 6 -3 61 -6 121 -24 534 -180 854 -464 954 -35 13 -70 20 -78
17 -8 -3 -14 -2 -14 3 0 4 -10 7 -22 7 l-22 -1 -1 565 c-1 378 -5 578 -13 605
-6 22 -13 54 -15 70 -7 44 -27 128 -34 145 -3 8 -7 22 -9 30 -6 28 -85 184
-117 229 -49 69 -155 177 -216 221 -110 78 -322 170 -393 170 -14 0 -18 5 -14
15 4 10 -5 17 -32 24 -50 13 -177 18 -241 9z"/>
<path d="M2178 844 c-2 -2 -28 -6 -58 -9 -30 -3 -62 -7 -70 -9 -76 -17 -80
-19 -69 -32 8 -9 16 -11 29 -4 9 5 20 6 24 3 3 -3 6 -2 6 3 0 5 12 9 28 10 15
1 70 5 122 9 238 21 765 5 843 -24 24 -9 37 -6 37 10 0 7 -36 18 -82 25 -16 2
-43 7 -60 10 -35 7 -744 15 -750 8z"/>
<path d="M2417 764 c-1 -1 -42 -4 -91 -7 -90 -6 -126 -19 -90 -34 23 -10 507
-11 549 -1 17 3 35 7 40 7 24 3 -27 21 -75 27 -47 6 -328 12 -333 8z m348 -24
c16 -6 11 -8 -19 -12 -40 -4 -402 -3 -466 2 l-35 3 35 7 c46 9 459 10 485 0z"/>
<path d="M1823 743 c-7 -2 -13 -15 -13 -29 0 -36 39 -57 150 -79 57 -11 103
-16 295 -31 157 -12 493 -6 680 12 101 10 108 11 170 24 100 21 145 54 124 92
-11 19 -25 18 -59 -4 -24 -15 -84 -30 -175 -43 -199 -27 -758 -27 -945 0 -113
17 -162 29 -181 46 -23 20 -26 21 -46 12z"/>
<path d="M2497 564 c-3 -3 -48 -7 -101 -9 -196 -7 -308 -25 -276 -45 8 -5 17
-7 20 -5 6 4 59 12 140 20 65 8 411 8 492 0 31 -2 74 -9 96 -13 48 -11 80 2
42 16 -40 15 -115 23 -257 27 -72 1 -136 6 -141 9 -5 3 -12 3 -15 0z"/>
<path d="M2005 476 c-24 -17 -11 -54 23 -67 83 -32 224 -44 497 -44 362 0 515
25 523 84 5 35 -25 52 -50 27 -31 -31 -202 -49 -463 -50 -262 -1 -417 14 -477
44 -30 15 -39 16 -53 6z"/>
<path d="M2312 476 c-31 -18 23 -24 210 -25 132 -1 178 2 181 12 4 9 6 9 6 0
1 -7 8 -10 16 -7 23 9 18 21 -10 26 -17 4 -25 1 -25 -8 0 -8 -5 -14 -11 -14
-5 0 -8 4 -4 9 3 5 1 13 -5 16 -6 4 -9 1 -8 -7 2 -10 -28 -14 -144 -16 -82 -1
-148 1 -148 5 0 5 23 9 52 11 28 1 54 5 57 8 10 9 -149 0 -167 -10z"/>
<path d="M2494 483 c9 -9 156 -10 156 0 0 4 -37 7 -82 7 -45 0 -78 -3 -74 -7z"/>
<path d="M2316 271 c-16 -4 -31 -12 -34 -19 -3 -9 8 -11 47 -6 73 9 295 9 376
0 53 -6 67 -5 59 4 -6 6 -27 15 -47 20 -39 8 -356 9 -401 1z"/>
<path d="M2220 242 c-43 -15 -27 -57 28 -71 20 -6 53 -13 72 -16 36 -7 345 -8
390 -2 88 12 112 20 127 44 16 24 16 26 0 38 -14 10 -25 10 -56 -1 -47 -16
-183 -29 -163 -16 10 7 4 11 -23 16 -20 4 -40 5 -43 2 -3 -3 4 -6 16 -6 11 0
23 -4 26 -8 8 -13 -39 -8 -55 4 -15 12 -51 15 -44 3 3 -3 -6 -9 -20 -11 -13
-3 -22 -1 -19 3 3 5 -7 9 -23 9 -22 0 -25 -2 -13 -11 11 -7 -3 -9 -50 -4 -73
7 -110 14 -125 25 -5 4 -17 5 -25 2z"/>
</g>
</svg>
